<svg viewBox="-744 -354 1488 708" width="1488" height="708" style="background-color: rgb(255, 255, 255);" xmlns="http://www.w3.org/2000/svg"><path d="M-72.18072133531217,-12.448362565168122L-165.07320550962126,-25.458494357422396M-165.07320550962126,-48.613852173624956L-165.07320550962126,-25.458494357422396M-165.07320550962126,-25.458494357422396L-190.56070287160367,-1.1947416965973923M-72.18072133531217,-35.603720381370685L-165.07320550962126,-48.613852173624956M-165.07320550962126,-48.613852173624956L-190.56070287160367,-24.35009951279995" style="fill:none;stroke:rgb(0,0,0);stroke-width:1;stroke-linecap:round"></path><path d="M-72.18072133531219,-12.44836256516812L-165.07320550962126,-25.458494357422403L-165.07320550962126,-48.613852173624956zM-165.07320550962126,-48.613852173624956L-165.07320550962126,-25.458494357422403L-190.56070287160367,-24.35009951279995zM-72.18072133531219,-35.60372038137068L-72.18072133531219,-12.44836256516812L-165.07320550962126,-48.613852173624956z" style="fill:rgb(238,238,238); fill-opacity: 0.4"></path><path d="M-83.14646922323725,-10.661427962396955L-176.03895339754635,-23.671559754651227M-176.03895339754635,-35.18134572634976L-176.03895339754635,-23.671559754651227M-176.03895339754635,-23.671559754651227L-180.46658530417562,-19.456514082263023" style="fill:none;stroke:rgb(0,0,0);stroke-width:1;stroke-linecap:round"></path><path d="M-190.56070287160367,-1.194741696597396L-165.07320550962126,-25.458494357422403L-72.18072133531219,-12.44836256516812z" style="fill:rgb(238,238,238); fill-opacity: 0.4"></path><path d="M-72.18072133531217,-35.603720381370685L-72.18072133531217,-12.448362565168122M-72.18072133531217,-12.448362565168122L-97.66821869729456,11.815390095656882M-83.14646922323725,-22.171213934095483L-176.03895339754635,-35.18134572634976M-176.03895339754635,-35.18134572634976L-180.46658530417562,-30.96630005396155" style="fill:none;stroke:rgb(0,0,0);stroke-width:1;stroke-linecap:round"></path><path d="M-176.03895339754635,-35.18134572634976L-176.03895339754635,-23.671559754651234L-180.46658530417562,-30.96630005396155zM-176.03895339754635,-23.671559754651234L-180.46658530417562,-19.456514082263023L-180.46658530417562,-30.96630005396155z" style="fill:rgb(153,221,255); fill-opacity: 0.4"></path><path d="M-180.46658530417562,-30.96630005396155L-180.46658530417562,-19.456514082263023M-180.46658530417562,-19.456514082263023L-87.57410112986653,-6.446382290008745M-72.18072133531217,-35.603720381370685L-97.66821869729456,-11.339967720545676" style="fill:none;stroke:rgb(0,0,0);stroke-width:1;stroke-linecap:round"></path><path d="M-83.14646922323728,-10.661427962396955L-176.03895339754635,-23.671559754651234L-176.03895339754635,-35.18134572634976z" style="fill:rgb(153,221,255); fill-opacity: 0.4"></path><path d="M-165.07320550962126,-25.458494357422403L-190.56070287160367,-1.194741696597396L-190.56070287160367,-24.35009951279995z" style="fill:rgb(238,238,238); fill-opacity: 0.4"></path><path d="M-180.46658530417562,-19.456514082263023L-176.03895339754635,-23.671559754651234L-83.14646922323728,-10.661427962396955z" style="fill:rgb(153,221,255); fill-opacity: 0.4"></path><path d="M-180.46658530417562,-30.96630005396155L-87.57410112986653,-17.956168261707276" style="fill:none;stroke:rgb(0,0,0);stroke-width:1;stroke-linecap:round"></path><path d="M-97.66821869729456,-11.339967720545674L-72.18072133531219,-35.60372038137068L-165.07320550962126,-48.613852173624956z" style="fill:rgb(238,238,238); fill-opacity: 0.4"></path><path d="M-180.46658530417562,-30.96630005396155L-87.57410112986655,-17.956168261707273L-176.03895339754635,-35.18134572634976z" style="fill:rgb(153,221,255); fill-opacity: 0.4"></path><path d="M78.42910560052283,8.645418218721607L-14.463378573786247,-4.36471357353267M-14.463378573786247,-27.520071389735225L-14.463378573786247,-4.36471357353267M-14.463378573786247,-4.36471357353267L-39.950875935768636,19.899039087292334" style="fill:none;stroke:rgb(0,0,0);stroke-width:1;stroke-linecap:round"></path><path d="M-180.46658530417562,-30.96630005396155L-180.46658530417562,-19.456514082263023L-87.57410112986655,-17.956168261707273zM-83.14646922323728,-22.171213934095483L-83.14646922323728,-10.661427962396955L-176.03895339754635,-35.18134572634976z" style="fill:rgb(153,221,255); fill-opacity: 0.4"></path><path d="M-97.66821869729456,11.815390095656884L-72.18072133531219,-12.44836256516812L-72.18072133531219,-35.60372038137068z" style="fill:rgb(238,238,238); fill-opacity: 0.4"></path><path d="M76.94604212717053,10.631216549819948L-15.946442047138568,-2.3789152424343283M-15.946442047138568,-13.888701214132858L-15.946442047138568,-2.3789152424343283M-15.946442047138568,-2.3789152424343283L-20.374073953767844,1.8361304299538808" style="fill:none;stroke:rgb(0,0,0);stroke-width:1;stroke-linecap:round"></path><path d="M-87.57410112986655,-6.446382290008745L-180.46658530417562,-19.456514082263023L-83.14646922323728,-10.661427962396955zM-87.57410112986655,-17.956168261707273L-83.14646922323728,-22.171213934095483L-176.03895339754635,-35.18134572634976z" style="fill:rgb(153,221,255); fill-opacity: 0.4"></path><path d="M-190.56070287160367,-24.35009951279995L-97.66821869729456,-11.339967720545674L-165.07320550962126,-48.613852173624956z" style="fill:rgb(238,238,238); fill-opacity: 0.4"></path><path d="M76.94604212717053,-0.8785694218785819L-15.946442047138568,-13.888701214132858M-15.946442047138568,-13.888701214132858L-20.374073953767844,-9.67365554174465M-190.56070287160367,-24.35009951279995L-190.56070287160367,-1.1947416965973923M-190.56070287160367,-1.1947416965973923L-97.66821869729456,11.815390095656882M78.42910560052283,-14.509939597480953L-14.463378573786247,-27.520071389735225M-14.463378573786247,-27.520071389735225L-39.950875935768636,-3.256318728910224M-83.1464727748675,-22.171214745474543L-83.1464727748675,-10.661428430757661M-83.1464727748675,-10.661428430757661L-87.57410468149678,-6.446382758369452M-83.1464727748675,-10.661428430757661L-27.64294151186146,-11.49189078265706M-83.14646922323725,-22.171213934095483L-83.14646922323725,-10.661427962396955M-83.14646922323725,-10.661427962396955L-87.57410112986653,-6.446382290008745" style="fill:none;stroke:rgb(0,0,0);stroke-width:1;stroke-linecap:round"></path><path d="M-97.66821869729456,11.815390095656884L-190.56070287160367,-1.194741696597396L-72.18072133531219,-12.44836256516812z" style="fill:rgb(238,238,238); fill-opacity: 0.4"></path><path d="M-15.946442047138571,-13.888701214132858L-15.946442047138571,-2.3789152424343265L-20.374073953767848,-9.67365554174465zM-180.46658530417562,-19.456514082263023L-87.57410112986655,-6.446382290008745L-87.57410112986655,-17.956168261707273zM-15.946442047138571,-2.3789152424343265L-20.374073953767848,1.8361304299538825L-20.374073953767848,-9.67365554174465z" style="fill:rgb(153,221,255); fill-opacity: 0.4"></path><path d="M-83.1464727748675,-22.171214745474543L-87.57410468149678,-17.956169073086333M-83.1464727748675,-22.171214745474543L-27.64294151186146,-11.49189078265706M-83.14646922323725,-22.171213934095483L-87.57410112986653,-17.956168261707276" style="fill:none;stroke:rgb(0,0,0);stroke-width:1;stroke-linecap:round"></path><path d="M78.42910560052285,8.645418218721606L-14.463378573786244,-4.364713573532669L-14.463378573786244,-27.520071389735225z" style="fill:rgb(238,238,238); fill-opacity: 0.4"></path><path d="M-20.374073953767844,-9.67365554174465L-20.374073953767844,1.8361304299538808M-20.374073953767844,1.8361304299538808L72.51841022054124,14.846262222208157" style="fill:none;stroke:rgb(0,0,0);stroke-width:1;stroke-linecap:round"></path><path d="M-83.14647009104013,-22.171214055636316L-83.14647009104013,-10.661428083937784L-87.5741019976694,-6.446382411549576z" style="fill:rgb(255,187,187); fill-opacity: 0.4"></path><path d="M-87.57410112986655,-6.446382290008745L-83.14646922323728,-10.661427962396955L-83.14646922323728,-22.171213934095483zM76.94604212717051,10.631216549819948L-15.946442047138571,-2.3789152424343265L-15.946442047138571,-13.888701214132858z" style="fill:rgb(153,221,255); fill-opacity: 0.4"></path><path d="M-190.56070287160367,-24.35009951279995L-97.66821869729456,-11.339967720545676" style="fill:none;stroke:rgb(0,0,0);stroke-width:1;stroke-linecap:round"></path><path d="M-20.374073953767848,1.8361304299538825L-15.946442047138571,-2.3789152424343265L76.94604212717051,10.631216549819948z" style="fill:rgb(153,221,255); fill-opacity: 0.4"></path><path d="M-20.374073953767844,-9.67365554174465L72.51841022054124,3.336476250509627" style="fill:none;stroke:rgb(0,0,0);stroke-width:1;stroke-linecap:round"></path><path d="M-83.14647009104013,-22.171214055636316L-87.5741019976694,-6.446382411549576L-87.5741019976694,-17.9561683832481z" style="fill:rgb(255,187,187); fill-opacity: 0.4"></path><path d="M-87.57410112986655,-17.956168261707273L-87.57410112986655,-6.446382290008745L-83.14646922323728,-22.171213934095483z" style="fill:rgb(153,221,255); fill-opacity: 0.4"></path><path d="M-87.57410468149678,-6.446382758369452L-87.57410468149678,-17.956169073086333M-87.57410468149678,-6.446382758369452L-27.64294151186146,-11.49189078265706M-87.57410112986653,-17.956168261707276L-87.57410112986653,-6.446382290008745" style="fill:none;stroke:rgb(0,0,0);stroke-width:1;stroke-linecap:round"></path><path d="M-83.14647009104013,-10.661428083937784L-83.14647009104013,-22.171214055636316L-27.642941547223113,-11.491890648473078zM-87.5741019976694,-6.446382411549576L-83.14647009104013,-10.661428083937784L-27.642941547223113,-11.491890648473078z" style="fill:rgb(255,187,187); fill-opacity: 0.4"></path><path d="M-87.57410468149678,-17.956169073086333L-27.64294151186146,-11.49189078265706" style="fill:none;stroke:rgb(0,0,0);stroke-width:1;stroke-linecap:round"></path><path d="M-190.56070287160367,-24.35009951279995L-190.56070287160367,-1.194741696597396L-97.66821869729456,-11.339967720545674z" style="fill:rgb(238,238,238); fill-opacity: 0.4"></path><path d="M-83.14647009104013,-22.171214055636316L-87.5741019976694,-17.9561683832481L-27.642941547223113,-11.491890648473078z" style="fill:rgb(255,187,187); fill-opacity: 0.4"></path><path d="M-20.374073953767848,-9.67365554174465L72.51841022054124,3.3364762505096266L-15.946442047138571,-13.888701214132858z" style="fill:rgb(153,221,255); fill-opacity: 0.4"></path><path d="M-14.463378573786244,-27.520071389735225L-14.463378573786244,-4.364713573532669L-39.950875935768636,-3.2563187289102236zM-97.66821869729456,-11.339967720545674L-97.66821869729456,11.815390095656884L-72.18072133531219,-35.60372038137068zM78.42910560052285,-14.509939597480951L78.42910560052285,8.645418218721606L-14.463378573786244,-27.520071389735225z" style="fill:rgb(238,238,238); fill-opacity: 0.4"></path><path d="M-87.5741019976694,-17.9561683832481L-87.5741019976694,-6.446382411549576L-27.642941547223113,-11.491890648473078z" style="fill:rgb(255,187,187); fill-opacity: 0.4"></path><path d="M-20.374073953767848,-9.67365554174465L-20.374073953767848,1.8361304299538825L72.51841022054124,3.3364762505096266zM76.94604212717051,-0.8785694218785824L76.94604212717051,10.631216549819948L-15.946442047138571,-13.888701214132858z" style="fill:rgb(153,221,255); fill-opacity: 0.4"></path><path d="M-39.950875935768636,19.899039087292337L-14.463378573786244,-4.364713573532669L78.42910560052285,8.645418218721606z" style="fill:rgb(238,238,238); fill-opacity: 0.4"></path><path d="M72.51841022054124,14.846262222208157L-20.374073953767848,1.8361304299538825L76.94604212717051,10.631216549819948z" style="fill:rgb(153,221,255); fill-opacity: 0.4"></path><path d="M78.42910560052283,-14.509939597480953L78.42910560052283,8.645418218721607M78.42910560052283,8.645418218721607L52.94160823854045,32.90917087954661" style="fill:none;stroke:rgb(0,0,0);stroke-width:1;stroke-linecap:round"></path><path d="M-190.56070287160367,-1.194741696597396L-97.66821869729456,11.815390095656884L-97.66821869729456,-11.339967720545674z" style="fill:rgb(238,238,238); fill-opacity: 0.4"></path><path d="M72.51841022054124,3.3364762505096266L76.94604212717051,-0.8785694218785824L-15.946442047138571,-13.888701214132858z" style="fill:rgb(153,221,255); fill-opacity: 0.4"></path><path d="M76.94604008835287,-0.8785695025056661L76.94604008835287,10.631216940843098M76.94604008835287,10.631216940843098L72.51840818172359,14.846262613231309M76.94604008835287,10.631216940843098L132.4495741365248,26.9740658171771M76.94604212717053,-0.8785694218785819L76.94604212717053,10.631216549819948M76.94604212717053,10.631216549819948L72.51841022054124,14.846262222208157" style="fill:none;stroke:rgb(0,0,0);stroke-width:1;stroke-linecap:round"></path><path d="M-20.374073953767848,1.8361304299538825L72.51841022054124,14.846262222208157L72.51841022054124,3.3364762505096266z" style="fill:rgb(153,221,255); fill-opacity: 0.4"></path><path d="M76.94604008835287,-0.8785695025056661L72.51840818172359,3.336476169882543M76.94604008835287,-0.8785695025056661L132.4495741365248,26.9740658171771M76.94604212717053,-0.8785694218785819L72.51841022054124,3.336476250509627M-97.66821869729456,-11.339967720545676L-97.66821869729456,11.815390095656882" style="fill:none;stroke:rgb(0,0,0);stroke-width:1;stroke-linecap:round"></path><path d="M76.94604125936765,-0.8785695434194105L76.94604125936765,10.63121642827912L72.51840935273837,14.846262100667332z" style="fill:rgb(255,187,187); fill-opacity: 0.4"></path><path d="M72.51841022054124,14.846262222208157L76.94604212717051,10.631216549819948L76.94604212717051,-0.8785694218785824z" style="fill:rgb(153,221,255); fill-opacity: 0.4"></path><path d="M78.42910560052283,-14.509939597480953L52.94160823854045,9.753813063344053" style="fill:none;stroke:rgb(0,0,0);stroke-width:1;stroke-linecap:round"></path><path d="M-14.463378573786244,-4.364713573532669L-39.950875935768636,19.899039087292337L-39.950875935768636,-3.2563187289102236z" style="fill:rgb(238,238,238); fill-opacity: 0.4"></path><path d="M76.94604125936765,10.63121642827912L76.94604125936765,-0.8785695434194105L132.44956980318466,26.974064907359363zM76.94604125936765,-0.8785695434194105L72.51840935273837,14.846262100667332L72.51840935273837,3.3364761289687985z" style="fill:rgb(255,187,187); fill-opacity: 0.4"></path><path d="M72.51841022054124,3.3364762505096266L72.51841022054124,14.846262222208157L76.94604212717051,-0.8785694218785824z" style="fill:rgb(153,221,255); fill-opacity: 0.4"></path><path d="M72.51840818172359,14.846262613231309L72.51840818172359,3.336476169882543M72.51840818172359,14.846262613231309L132.4495741365248,26.9740658171771M72.51841022054124,3.336476250509627L72.51841022054124,14.846262222208157" style="fill:none;stroke:rgb(0,0,0);stroke-width:1;stroke-linecap:round"></path><path d="M72.51840935273837,14.846262100667332L76.94604125936765,10.63121642827912L132.44956980318466,26.974064907359363zM76.94604125936765,-0.8785695434194105L72.51840935273837,3.3364761289687985L132.44956980318466,26.974064907359363z" style="fill:rgb(255,187,187); fill-opacity: 0.4"></path><path d="M72.51840818172359,3.336476169882543L132.4495741365248,26.9740658171771" style="fill:none;stroke:rgb(0,0,0);stroke-width:1;stroke-linecap:round"></path><path d="M52.94160823854045,9.753813063344053L78.42910560052285,-14.509939597480951L-14.463378573786244,-27.520071389735225z" style="fill:rgb(238,238,238); fill-opacity: 0.4"></path><path d="M72.51840935273837,3.3364761289687985L72.51840935273837,14.846262100667332L132.44956980318466,26.974064907359363z" style="fill:rgb(255,187,187); fill-opacity: 0.4"></path><path d="M229.03893253635786,29.739199002611336L136.14644836204877,16.72906721035706M136.14644836204877,-6.426290605845498L136.14644836204877,16.72906721035706M136.14644836204877,16.72906721035706L110.65895100006638,40.992819871182064" style="fill:none;stroke:rgb(0,0,0);stroke-width:1;stroke-linecap:round"></path><path d="M52.94160823854045,32.90917087954661L78.42910560052285,8.645418218721606L78.42910560052285,-14.509939597480951zM-39.950875935768636,-3.2563187289102236L52.94160823854045,9.753813063344053L-14.463378573786244,-27.520071389735225z" style="fill:rgb(238,238,238); fill-opacity: 0.4"></path><path d="M-39.950875935768636,-3.256318728910224L-39.950875935768636,19.899039087292334M-39.950875935768636,19.899039087292334L52.94160823854045,32.90917087954661M229.03893253635786,6.583841186408776L136.14644836204877,-6.426290605845498M136.14644836204877,-6.426290605845498L110.65895100006638,17.837462054979504" style="fill:none;stroke:rgb(0,0,0);stroke-width:1;stroke-linecap:round"></path><path d="M52.94160823854045,32.90917087954661L-39.950875935768636,19.899039087292337L78.42910560052285,8.645418218721606zM229.03893253635786,29.739199002611336L136.14644836204877,16.72906721035706L136.14644836204877,-6.426290605845499z" style="fill:rgb(238,238,238); fill-opacity: 0.4"></path><path d="M-39.950875935768636,-3.256318728910224L52.94160823854045,9.753813063344053" style="fill:none;stroke:rgb(0,0,0);stroke-width:1;stroke-linecap:round"></path><path d="M-39.950875935768636,-3.2563187289102236L-39.950875935768636,19.899039087292337L52.94160823854045,9.753813063344053zM136.14644836204877,-6.426290605845499L136.14644836204877,16.72906721035706L110.65895100006641,17.837462054979508zM52.94160823854045,9.753813063344053L52.94160823854045,32.90917087954661L78.42910560052285,-14.509939597480951zM229.03893253635786,6.583841186408775L229.03893253635786,29.739199002611336L136.14644836204877,-6.426290605845499zM110.65895100006641,40.992819871182064L136.14644836204877,16.72906721035706L229.03893253635786,29.739199002611336z" style="fill:rgb(238,238,238); fill-opacity: 0.4"></path><path d="M229.03893253635786,6.583841186408776L229.03893253635786,29.739199002611336M229.03893253635786,29.739199002611336L203.55143517437548,54.002951663436335" style="fill:none;stroke:rgb(0,0,0);stroke-width:1;stroke-linecap:round"></path><path d="M-39.950875935768636,19.899039087292337L52.94160823854045,32.90917087954661L52.94160823854045,9.753813063344053z" style="fill:rgb(238,238,238); fill-opacity: 0.4"></path><path d="M290.93313333945355,158.3218309160511L280.9314796600722,156.92104124328205M280.9314796600722,-82.41821929173298L280.9314796600722,156.92104124328205M280.9314796600722,156.92104124328205L277.0952289337342,160.57310003300145M52.94160823854045,9.753813063344053L52.94160823854045,32.90917087954661M229.03893253635786,6.583841186408776L203.55143517437548,30.84759384723378M290.93313333945355,-81.01742961896392L290.93313333945355,158.3218309160511M290.93313333945355,158.3218309160511L287.0968826131155,161.97388970577052" style="fill:none;stroke:rgb(0,0,0);stroke-width:1;stroke-linecap:round"></path><path d="M277.0952289337342,160.57310003300145L280.9314796600722,156.92104124328205L290.9331333394536,158.3218309160511zM136.14644836204877,16.72906721035706L110.65895100006641,40.992819871182064L110.65895100006641,17.837462054979508zM287.09688261311555,161.97388970577052L277.0952289337342,160.57310003300145L290.9331333394536,158.3218309160511z" style="fill:rgb(238,238,238); fill-opacity: 0.4"></path><path d="M277.0952289337342,-78.7661605020136L277.0952289337342,160.57310003300145M277.0952289337342,160.57310003300145L287.0968826131155,161.97388970577052" style="fill:none;stroke:rgb(0,0,0);stroke-width:1;stroke-linecap:round"></path><path d="M203.55143517437546,30.847593847233778L229.03893253635786,6.583841186408775L136.14644836204877,-6.426290605845499z" style="fill:rgb(238,238,238); fill-opacity: 0.4"></path><path d="M287.0968826131155,-77.36537082924454L287.0968826131155,161.97388970577052M358.6521314884837,187.75121185646853L348.65047780910237,186.3504221836994M348.65047780910237,-92.87872242487627L348.65047780910237,186.3504221836994M348.65047780910237,186.3504221836994L344.8142270827643,190.0024809734188" style="fill:none;stroke:rgb(0,0,0);stroke-width:1;stroke-linecap:round"></path><path d="M203.55143517437546,54.00295166343634L229.03893253635786,29.739199002611336L229.03893253635786,6.583841186408775z" style="fill:rgb(238,238,238); fill-opacity: 0.4"></path><path d="M358.6521314884837,-91.47793275210721L358.6521314884837,187.75121185646853M358.6521314884837,187.75121185646853L354.81588076214564,191.4032706461879" style="fill:none;stroke:rgb(0,0,0);stroke-width:1;stroke-linecap:round"></path><path d="M344.8142270827643,190.00248097341884L348.65047780910237,186.35042218369946L358.6521314884837,187.75121185646853zM110.65895100006641,17.837462054979508L203.55143517437546,30.847593847233778L136.14644836204877,-6.426290605845499z" style="fill:rgb(238,238,238); fill-opacity: 0.4"></path><path d="M110.65895100006638,17.837462054979504L110.65895100006638,40.992819871182064M110.65895100006638,40.992819871182064L203.55143517437548,54.002951663436335" style="fill:none;stroke:rgb(0,0,0);stroke-width:1;stroke-linecap:round"></path><path d="M203.55143517437546,54.00295166343634L110.65895100006641,40.992819871182064L229.03893253635786,29.739199002611336zM354.81588076214564,191.4032706461879L344.8142270827643,190.00248097341884L358.6521314884837,187.75121185646853z" style="fill:rgb(238,238,238); fill-opacity: 0.4"></path><path d="M344.8142270827643,-89.2266636351569L344.8142270827643,190.0024809734188M344.8142270827643,190.0024809734188L354.81588076214564,191.4032706461879M354.81588076214564,-87.82587396238783L354.81588076214564,191.4032706461879M110.65895100006638,17.837462054979504L203.55143517437548,30.84759384723378M224.18187703836958,31.397973599577544L256.88837225341086,35.97870816591723" style="fill:none;stroke:rgb(0,0,0);stroke-width:1;stroke-linecap:round"></path><path d="M290.9331333394536,158.3218309160511L280.9314796600722,156.92104124328205L280.9314796600722,-82.41821929173298zM280.9314796600722,156.92104124328205L277.0952289337342,160.57310003300145L277.0952289337342,-78.7661605020136zM287.09688261311555,161.97388970577052L290.9331333394536,158.3218309160511L290.9331333394536,-81.01742961896392zM110.65895100006641,17.837462054979508L110.65895100006641,40.992819871182064L203.55143517437546,30.847593847233778zM203.55143517437546,30.847593847233778L203.55143517437546,54.00295166343634L229.03893253635786,6.583841186408775zM277.0952289337342,160.57310003300145L287.09688261311555,161.97388970577052L287.09688261311555,-77.36537082924454z" style="fill:rgb(238,238,238); fill-opacity: 0.4"></path><path d="M254.25654207743133,40.707124612490084L256.8883722534108,43.17232439822882L276.127487085788,38.67325791082293zM258.5149326912404,28.610486793319946L255.26181181558124,31.707413854526727L276.127487085788,38.67325791082293z" style="fill:rgb(0,0,0)"></path><path d="M110.65895100006641,40.992819871182064L203.55143517437546,54.00295166343634L203.55143517437546,30.847593847233778z" style="fill:rgb(238,238,238); fill-opacity: 0.4"></path><path d="M255.26181181558124,31.707413854526727L254.25654207743133,40.707124612490084L276.127487085788,38.67325791082293z" style="fill:rgb(0,0,0)"></path><path d="M358.6521314884837,187.75121185646853L348.65047780910237,186.35042218369946L348.65047780910237,-92.87872242487627z" style="fill:rgb(238,238,238); fill-opacity: 0.4"></path><path d="M203.55143517437548,30.84759384723378L203.55143517437548,54.002951663436335M291.90087518739966,40.88241250321458L324.60737040244095,45.463147069554275" style="fill:none;stroke:rgb(0,0,0);stroke-width:1;stroke-linecap:round"></path><path d="M348.65047780910237,186.35042218369946L344.8142270827643,190.00248097341884L344.8142270827643,-89.2266636351569zM354.81588076214564,191.4032706461879L358.6521314884837,187.75121185646853L358.6521314884837,-91.47793275210721zM344.8142270827643,190.00248097341884L354.81588076214564,191.4032706461879L354.81588076214564,-87.82587396238783zM290.9331333394536,-81.01742961896392L290.9331333394536,158.3218309160511L280.9314796600722,-82.41821929173298zM280.9314796600722,-82.41821929173298L280.9314796600722,156.92104124328205L277.0952289337342,-78.7661605020136z" style="fill:rgb(238,238,238); fill-opacity: 0.4"></path><path d="M321.9755402264614,50.19156351612712L324.60737040244095,52.65676330186585L343.84648523481815,48.15769681445997zM326.2339308402705,38.094925696956984L322.98080996461135,41.19185275816376L343.84648523481815,48.15769681445997z" style="fill:rgb(0,0,0)"></path><path d="M287.09688261311555,-77.36537082924454L287.09688261311555,161.97388970577052L290.9331333394536,-81.01742961896392zM277.0952289337342,-78.7661605020136L277.0952289337342,160.57310003300145L287.09688261311555,-77.36537082924454z" style="fill:rgb(238,238,238); fill-opacity: 0.4"></path><path d="M322.98080996461135,41.19185275816376L321.9755402264614,50.19156351612712L343.84648523481815,48.15769681445997z" style="fill:rgb(0,0,0)"></path><path d="M358.6521314884837,-91.47793275210721L358.6521314884837,187.75121185646853L348.65047780910237,-92.87872242487627zM348.65047780910237,-92.87872242487627L348.65047780910237,186.35042218369946L344.8142270827643,-89.2266636351569z" style="fill:rgb(238,238,238); fill-opacity: 0.4"></path><path d="M290.93313333945355,-81.01742961896392L280.9314796600722,-82.41821929173298M280.9314796600722,-82.41821929173298L277.0952289337342,-78.7661605020136M290.93313333945355,-81.01742961896392L287.0968826131155,-77.36537082924454" style="fill:none;stroke:rgb(0,0,0);stroke-width:1;stroke-linecap:round"></path><path d="M354.81588076214564,-87.82587396238783L354.81588076214564,191.4032706461879L358.6521314884837,-91.47793275210721zM287.09688261311555,-77.36537082924454L290.9331333394536,-81.01742961896392L280.9314796600722,-82.41821929173298zM344.8142270827643,-89.2266636351569L344.8142270827643,190.00248097341884L354.81588076214564,-87.82587396238783zM277.0952289337342,-78.7661605020136L287.09688261311555,-77.36537082924454L280.9314796600722,-82.41821929173298z" style="fill:rgb(238,238,238); fill-opacity: 0.4"></path><path d="M277.0952289337342,-78.7661605020136L287.0968826131155,-77.36537082924454M358.6521314884837,-91.47793275210721L348.65047780910237,-92.87872242487627M348.65047780910237,-92.87872242487627L344.8142270827643,-89.2266636351569M358.6521314884837,-91.47793275210721L354.81588076214564,-87.82587396238783" style="fill:none;stroke:rgb(0,0,0);stroke-width:1;stroke-linecap:round"></path><path d="M354.81588076214564,-87.82587396238783L358.6521314884837,-91.47793275210721L348.65047780910237,-92.87872242487627zM344.8142270827643,-89.2266636351569L354.81588076214564,-87.82587396238783L348.65047780910237,-92.87872242487627z" style="fill:rgb(238,238,238); fill-opacity: 0.4"></path><path d="M344.8142270827643,-89.2266636351569L354.81588076214564,-87.82587396238783" style="fill:none;stroke:rgb(0,0,0);stroke-width:1;stroke-linecap:round"></path></svg>